{"title":"Kara Sevda S01E25.DVB-T.X264.ARI Greek Subs","uid":15288464,"size":449723755,"categoryP":"video","categoryS":"tv_shows","magnet":"?xt=urn:btih:6820c295e866762545ab265fcebf306bac92c46f&amp;dn=Kara+Sevda+S01E25.DVB-T.X264.ARI+Greek+Subs&amp;tr=udp%3A%2F%2Ftracker.leechers-paradise.org%3A6969&amp;tr=udp%3A%2F%2Fzer0day.ch%3A1337&amp;tr=udp%3A%2F%2Fopen.demonii.com%3A1337&amp;tr=udp%3A%2F%2Ftracker.coppersurfer.tk%3A6969&amp;tr=udp%3A%2F%2Fexodus.desync.com%3A6969","seeders":5,"leechers":0,"uploader":"Aris2015","files":1,"time":1468398176,"description":"General\r\nComplete name               : Kara Sevda S01E25.DVB-T.X264.ARI.mp4\r\nFormat                      : MPEG-4\r\nFormat profile              : Base Media\r\nCodec ID                    : isom (isom/iso2/avc1/mp41)\r\nFile size                   : 429 MiB\r\nDuration                    : 53mn 4s\r\nOverall bit rate mode       : Variable\r\nOverall bit rate            : 1 130 Kbps\r\nMovie name                  : Kara Sevda S01E25.DVB-T.X264.ARI\r\nPerformer                   : ARI\r\nRecorded date               : 2016\r\nWriting application         : Lavf57.37.100\r\nCopyright                   : MEGA TV\r\n\r\nVideo\r\nID                          : 1\r\nFormat                      : AVC\r\nFormat/Info                 : Advanced Video Codec\r\nFormat profile              :   \r\nFormat settings, CABAC      : Yes\r\nFormat settings, ReFrames   : 5 frames\r\nCodec ID                    : avc1\r\nCodec ID/Info               : Advanced Video Coding\r\nDuration                    : 53mn 4s\r\nBit rate mode               : Variable\r\nBit rate                    : 1 000 Kbps\r\nMaximum bit rate            : 17.5 Mbps\r\nWidth                       : 720 pixels\r\nHeight                      : 576 pixels\r\nDisplay aspect ratio        : 16:9\r\nFrame rate mode             : Constant\r\nFrame rate                  : 25.000 fps\r\nStandard                    : PAL\r\nColor space                 : YUV\r\nChroma subsampling          : 4:2:0\r\nBit depth                   : 8 bits\r\nScan type                   : Progressive\r\nBits/(Pixel*Frame)          : 0.096\r\nStream size                 : 378 MiB (88%)\r\nWriting library             : x264 core 148 r2643\r\n\r\n\r\nAudio\r\nID                          : 2\r\nFormat                      : AAC\r\nFormat/Info                 : Advanced Audio Codec\r\nFormat profile              : LC\r\nCodec ID                    : 40\r\nDuration                    : 53mn 4s\r\nDuration_LastFrame          : -5ms\r\nBit rate mode               : Constant\r\nBit rate                    : 128 Kbps\r\nChannel(s)                  : 2 channels\r\nChannel positions           : Front: L R\r\nSampling rate               : 48.0 KHz\r\nFrame rate                  : 46.875 fps (1024 spf)\r\nCompression mode            : Lossy\r\nStream size                 : 48.6 MiB (11%)\r\nLanguage                    : Turkish\r\nDefault                     : Yes","torrent":{"xt":"urn:btih:6820c295e866762545ab265fcebf306bac92c46f","amp;dn":"Kara+Sevda+S01E25.DVB-T.X264.ARI+Greek+Subs","amp;tr":["udp%3A%2F%2Ftracker.leechers-paradise.org%3A6969","udp%3A%2F%2Fzer0day.ch%3A1337","udp%3A%2F%2Fopen.demonii.com%3A1337","udp%3A%2F%2Ftracker.coppersurfer.tk%3A6969","udp%3A%2F%2Fexodus.desync.com%3A6969"],"infoHash":"6820c295e866762545ab265fcebf306bac92c46f","infoHashBuffer":{"type":"Buffer","data":[104,32,194,149,232,102,118,37,69,171,38,95,206,191,48,107,172,146,196,111]},"announce":[],"urlList":[]}}